<svg width="48" height="72" viewBox="0 0 48 72" fill="none" xmlns="http://www.w3.org/2000/svg">
<path d="M41 36C41 45.3889 33.3889 53 24 53C14.6111 53 7 45.3889 7 36C7 26.6111 14.6111 19 24 19C33.3889 19 41 26.6111 41 36Z" fill="#413D51"/>
<path fill-rule="evenodd" clip-rule="evenodd" d="M0 0H6C6 6.62741 11.3726 12 18 12H24C37.2548 12 48 22.7452 48 36C48 49.2548 37.2548 60 24 60H18C11.3726 60 6 65.3726 6 72H0V0ZM24 52C32.8366 52 40 44.8366 40 36C40 27.1634 32.8366 20 24 20C15.1634 20 8 27.1634 8 36C8 44.8366 15.1634 52 24 52Z" fill="#413D51"/>
</svg>
